TITLE ""
FILE "DISC1Track04.mp3" MP3
  TRACK 01 AUDIO
    TITLE "DISC1Track04_01"
    INDEX 01 00:00:00
  TRACK 02 AUDIO
    TITLE "DISC1Track04_02"
    INDEX 01 00:01:12
  TRACK 03 AUDIO
    TITLE "DISC1Track04_03"
    INDEX 01 00:01:25
  TRACK 04 AUDIO
    TITLE "DISC1Track04_04"
    INDEX 01 00:05:19
  TRACK 05 AUDIO
    TITLE "DISC1Track04_05"
    INDEX 01 00:09:23
  TRACK 06 AUDIO
    TITLE "DISC1Track04_06"
    INDEX 01 00:12:66
  TRACK 07 AUDIO
    TITLE "DISC1Track04_07"
    INDEX 01 00:13:09
  TRACK 08 AUDIO
    TITLE "DISC1Track04_08"
    INDEX 01 00:15:53
  TRACK 09 AUDIO
    TITLE "DISC1Track04_09"
    INDEX 01 00:17:71
  TRACK 10 AUDIO
    TITLE "DISC1Track04_10"
    INDEX 01 00:19:70
  TRACK 11 AUDIO
    TITLE "DISC1Track04_11"
    INDEX 01 00:20:11
  TRACK 12 AUDIO
    TITLE "DISC1Track04_12"
    INDEX 01 00:23:13
  TRACK 13 AUDIO
    TITLE "DISC1Track04_13"
    INDEX 01 00:27:19
  TRACK 14 AUDIO
    TITLE "DISC1Track04_14"
    INDEX 01 00:31:01
  TRACK 15 AUDIO
    TITLE "DISC1Track04_15"
    INDEX 01 00:31:13
  TRACK 16 AUDIO
    TITLE "DISC1Track04_16"
    INDEX 01 00:33:47
  TRACK 17 AUDIO
    TITLE "DISC1Track04_17"
    INDEX 01 00:36:49
  TRACK 18 AUDIO
    TITLE "DISC1Track04_18"
    INDEX 01 00:39:32
  TRACK 19 AUDIO
    TITLE "DISC1Track04_19"
    INDEX 01 00:39:46
  TRACK 20 AUDIO
    TITLE "DISC1Track04_20"
    INDEX 01 00:42:73
  TRACK 21 AUDIO
    TITLE "DISC1Track04_21"
    INDEX 01 00:47:06
  TRACK 22 AUDIO
    TITLE "DISC1Track04_22"
    INDEX 01 00:50:61
  TRACK 23 AUDIO
    TITLE "DISC1Track04_23"
    INDEX 01 00:51:02
  TRACK 24 AUDIO
    TITLE "DISC1Track04_24"
    INDEX 01 00:56:13
  TRACK 25 AUDIO
    TITLE "DISC1Track04_25"
    INDEX 01 00:59:58
  TRACK 26 AUDIO
    TITLE "DISC1Track04_26"
    INDEX 01 01:03:09
  TRACK 27 AUDIO
    TITLE "DISC1Track04_27"
    INDEX 01 01:03:19
  TRACK 28 AUDIO
    TITLE "DISC1Track04_28"
    INDEX 01 01:06:50
  TRACK 29 AUDIO
    TITLE "DISC1Track04_29"
    INDEX 01 01:09:68
  TRACK 30 AUDIO
    TITLE "DISC1Track04_30"
    INDEX 01 01:12:51
  TRACK 31 AUDIO
    TITLE "DISC1Track04_31"
    INDEX 01 01:12:69
  TRACK 32 AUDIO
    TITLE "DISC1Track04_32"
    INDEX 01 01:16:62
  TRACK 33 AUDIO
    TITLE "DISC1Track04_33"
    INDEX 01 01:21:11
  TRACK 34 AUDIO
    TITLE "DISC1Track04_34"
    INDEX 01 01:25:10
  TRACK 35 AUDIO
    TITLE "DISC1Track04_35"
    INDEX 01 01:25:26
  TRACK 36 AUDIO
    TITLE "DISC1Track04_36"
    INDEX 01 01:28:28
  TRACK 37 AUDIO
    TITLE "DISC1Track04_37"
    INDEX 01 01:32:20
  TRACK 38 AUDIO
    TITLE "DISC1Track04_38"
    INDEX 01 01:35:64
  TRACK 39 AUDIO
    TITLE "DISC1Track04_39"
    INDEX 01 01:36:06
  TRACK 40 AUDIO
    TITLE "DISC1Track04_40"
    INDEX 01 01:39:32
  TRACK 41 AUDIO
    TITLE "DISC1Track04_41"
    INDEX 01 01:42:34
  TRACK 42 AUDIO
    TITLE "DISC1Track04_42"
    INDEX 01 01:45:13
